<svg enable-background="new 0 0 490 490" height="512" viewBox="0 0 490 490" width="512" xmlns="http://www.w3.org/2000/svg"><path d="m490 245c0 135.31-109.69 245-245 245-71.33 0-135.54-30.48-180.31-79.13-11.76-12.77-22.17-26.8-31.03-41.85-21.39-36.38-33.66-78.77-33.66-124.02 0-135.31 109.69-245 245-245 45.26 0 87.65 12.27 124.02 33.67 15.05 8.85 29.07 19.26 41.84 31.03 48.65 44.75 79.14 108.97 79.14 180.3z" fill="#f0cd00"/><path d="m490 245c0 132.26-104.79 240.04-235.88 244.83-131.09-4.79-235.88-112.57-235.88-244.83s104.79-240.04 235.88-244.83c131.09 4.79 235.88 112.57 235.88 244.83z" fill="#ffde50"/><path d="m410.86 64.7-346.17 346.17c-11.76-12.77-22.17-26.8-31.03-41.85l335.36-335.35c15.05 8.85 29.07 19.26 41.84 31.03z" fill="#ffea94"/><path d="m473.1 155.43-317.68 317.68c-22.49-8.84-43.36-20.91-62.03-35.64l344.08-344.08c14.73 18.67 26.8 39.54 35.63 62.04z" fill="#ffea94"/><path d="m435.38 245c0 105.14-85.24 190.38-190.38 190.38-36.62 0-70.82-10.34-99.85-28.26-12.65-7.8-24.31-17.05-34.77-27.51-7.69-7.68-14.73-16.03-21.02-24.94-8.66-12.27-15.91-25.61-21.5-39.78-8.28-20.95-12.94-43.73-13.22-67.55-.02-.78-.02-1.56-.02-2.34 0-105.14 85.23-190.38 190.38-190.38.78 0 1.57 0 2.35.02 23.82.28 46.59 4.95 67.54 13.22 14.17 5.6 27.51 12.84 39.78 21.5 8.91 6.3 17.25 13.33 24.94 21.02 10.46 10.45 19.71 22.12 27.51 34.77 17.92 29.03 28.26 63.23 28.26 99.85z" fill="#faa300"/><path d="m379.61 110.38-269.23 269.23c-7.69-7.68-14.73-16.03-21.02-24.94-8.66-12.27-15.91-25.61-21.5-39.78-8.28-20.95-12.94-43.73-13.22-67.55-.02-.78-.02-1.56-.02-2.34 0-105.14 85.23-190.38 190.38-190.38.78 0 1.57 0 2.35.02 23.82.28 46.59 4.95 67.54 13.22 14.17 5.6 27.51 12.84 39.78 21.5 8.91 6.3 17.25 13.33 24.94 21.02z" fill="#ffbd00"/><g fill="#f68e00"><path d="m435.375 245c0 105.14-85.24 190.38-190.38 190.38-3.61 0-7.19-.1-10.75-.3 100.14-5.57 179.62-88.55 179.62-190.08s-79.48-184.51-179.62-190.08c3.56-.2 7.14-.3 10.75-.3 105.14 0 190.38 85.24 190.38 190.38z"/><path d="m310.447 226.038h-36.639c-11.046 0-20 8.954-20 20v73.278 48.166c0 11.046 8.954 20 20 20s20-8.954 20-20v-28.166h16.639c31.23 0 56.639-25.408 56.639-56.639-.001-31.231-25.409-56.639-56.639-56.639zm0 73.277h-16.639v-33.278h16.639c9.175 0 16.639 7.464 16.639 16.639s-7.465 16.639-16.639 16.639z"/><path d="m247.205 187.023c0-40.399-32.868-73.267-73.268-73.267h-43.266c-11.046 0-20 8.954-20 20v106.534 79.025c0 11.046 8.954 20 20 20s20-8.954 20-20v-59.025h17.089l13.51 63.206c2.008 9.393 10.306 15.823 19.539 15.823 1.385 0 2.791-.145 4.2-.446 10.802-2.309 17.687-12.937 15.378-23.739l-13.413-62.748c23.844-12.1 40.231-36.846 40.231-65.363zm-73.267 33.268h-23.266v-66.534h23.266c18.344 0 33.268 14.923 33.268 33.267-.001 18.343-14.924 33.267-33.268 33.267z"/></g><path d="m335.448 226.038h-36.638c-11.046 0-20 8.954-20 20v73.278 48.166c0 11.046 8.954 20 20 20s20-8.954 20-20v-28.166h16.639c31.23 0 56.639-25.408 56.639-56.639-.001-31.231-25.409-56.639-56.64-56.639zm0 73.277h-16.638v-33.278h16.639c9.175 0 16.639 7.464 16.639 16.639s-7.465 16.639-16.64 16.639z" fill="#ffea94"/><path d="m272.207 187.023c0-40.399-32.868-73.267-73.268-73.267h-43.266c-11.046 0-20 8.954-20 20v106.534 79.025c0 11.046 8.954 20 20 20s20-8.954 20-20v-59.025h17.089l13.51 63.206c2.008 9.393 10.306 15.823 19.539 15.823 1.385 0 2.791-.145 4.2-.446 10.802-2.309 17.687-12.937 15.378-23.739l-13.413-62.748c23.844-12.1 40.231-36.846 40.231-65.363zm-73.268 33.268h-23.266v-66.534h23.266c18.344 0 33.268 14.923 33.268 33.267 0 18.343-14.924 33.267-33.268 33.267z" fill="#ffea94"/></svg>